<svg xmlns="http://www.w3.org/2000/svg" version="1.1" xmlns:xlink="http://www.w3.org/1999/xlink" xmlns:svgjs="http://svgjs.dev/svgjs" width="2000" height="1252" viewBox="0 0 2000 1252"><g transform="matrix(1,0,0,1,-1.2121212121212466,170.30189947865733)"><svg viewBox="0 0 396 248" data-background-color="#ffffff" preserveAspectRatio="xMidYMid meet" height="1252" width="2000" xmlns="http://www.w3.org/2000/svg" xmlns:xlink="http://www.w3.org/1999/xlink"><g id="tight-bounds" transform="matrix(1,0,0,1,0.2400000000000091,0.4000000000000057)"><svg viewBox="0 0 395.52 247.2" height="247.2" width="395.52"><g><svg></svg></g><g><svg viewBox="0 0 395.52 247.2" height="247.2" width="395.52"><g transform="matrix(1,0,0,1,75.54432,86.44450375943586)"><svg viewBox="0 0 244.43135999999998 74.31099248112825" height="74.31099248112825" width="244.43135999999998"><g><svg viewBox="0 0 244.43135999999998 74.31099248112825" height="74.31099248112825" width="244.43135999999998"><g transform="matrix(1,0,0,1,0,47.61802025023901)"><svg viewBox="0 0 244.43135999999998 26.692972230889236" height="26.692972230889236" width="244.43135999999998"><g id="textblocktransform"><svg viewBox="0 0 244.43135999999998 26.692972230889236" height="26.692972230889236" width="244.43135999999998" id="textblock"><g><svg viewBox="0 0 244.43135999999998 26.692972230889236" height="26.692972230889236" width="244.43135999999998"><g transform="matrix(1,0,0,1,0,0)"><svg width="244.43135999999998" viewBox="1.7999999999999998 -28 256.37 28" height="26.692972230889236" data-palette-color="#152232"><path d="M18-24Q18.2-23.2 18.2-22L18.2-22Q18.2-20.85 18-20L18-20Q18.2-19.2 18.2-18L18.2-18Q18.2-16.85 18-16L18-16Q18.2-15.2 18.2-14L18.2-14Q18.2-12.85 18-12L18-12 16.5-12Q16.7-11.2 16.7-10L16.7-10Q16.7-8.85 16.5-8L16.5-8Q16.7-7.2 16.7-6L16.7-6Q16.7-4.85 16.5-4L16.5-4 15.5-4Q15.7-3.2 15.7-2L15.7-2Q15.7-0.85 15.5 0L15.5 0 12.5 0Q12.3-0.85 12.3-2L12.3-2Q12.3-3.2 12.5-4L12.5-4 11.5-4Q11.3-4.85 11.3-6L11.3-6Q11.3-7.2 11.5-8L11.5-8 8.5-8Q8.7-7.2 8.7-6L8.7-6Q8.7-4.85 8.5-4L8.5-4 7.5-4Q7.7-3.2 7.7-2L7.7-2Q7.7-0.85 7.5 0L7.5 0 4.5 0Q4.3-0.85 4.3-2L4.3-2Q4.3-3.2 4.5-4L4.5-4 3.5-4Q3.3-4.85 3.3-6L3.3-6Q3.3-7.2 3.5-8L3.5-8Q3.3-8.85 3.3-10L3.3-10Q3.3-11.2 3.5-12L3.5-12 2-12Q1.8-12.85 1.8-14L1.8-14Q1.8-15.2 2-16L2-16Q1.8-16.85 1.8-18L1.8-18Q1.8-19.2 2-20L2-20Q1.8-20.85 1.8-22L1.8-22Q1.8-23.2 2-24L2-24Q1.8-24.85 1.8-26L1.8-26Q1.8-27.2 2-28L2-28 6-28Q6.2-27.2 6.2-26L6.2-26Q6.2-24.85 6-24L6-24Q6.2-23.2 6.2-22L6.2-22Q6.2-20.85 6-20L6-20Q6.2-19.2 6.2-18L6.2-18Q6.2-16.85 6-16L6-16Q6.2-15.2 6.2-14L6.2-14Q6.2-12.85 6-12L6-12Q6.2-11.2 6.2-10L6.2-10Q6.2-8.85 6-8L6-8 7.5-8Q7.3-8.85 7.3-10L7.3-10Q7.3-11.2 7.5-12L7.5-12 8.5-12Q8.3-12.85 8.3-14L8.3-14Q8.3-15.2 8.5-16L8.5-16Q8.3-16.85 8.3-18L8.3-18Q8.3-19.2 8.5-20L8.5-20Q8.3-20.85 8.3-22L8.3-22Q8.3-23.2 8.5-24L8.5-24Q8.3-24.85 8.3-26L8.3-26Q8.3-27.2 8.5-28L8.5-28 11.5-28Q11.7-27.2 11.7-26L11.7-26Q11.7-24.85 11.5-24L11.5-24Q11.7-23.2 11.7-22L11.7-22Q11.7-20.85 11.5-20L11.5-20Q11.7-19.2 11.7-18L11.7-18Q11.7-16.85 11.5-16L11.5-16Q11.7-15.2 11.7-14L11.7-14Q11.7-12.85 11.5-12L11.5-12 12.5-12Q12.7-11.2 12.7-10L12.7-10Q12.7-8.85 12.5-8L12.5-8 14-8Q13.8-8.85 13.8-10L13.8-10Q13.8-11.2 14-12L14-12Q13.8-12.85 13.8-14L13.8-14Q13.8-15.2 14-16L14-16Q13.8-16.85 13.8-18L13.8-18Q13.8-19.2 14-20L14-20Q13.8-20.85 13.8-22L13.8-22Q13.8-23.2 14-24L14-24Q13.8-24.85 13.8-26L13.8-26Q13.8-27.2 14-28L14-28 18-28Q18.2-27.2 18.2-26L18.2-26Q18.2-24.85 18-24L18-24ZM38-24Q38.2-23.2 38.2-22L38.2-22Q38.2-20.85 38-20L38-20Q38.2-19.2 38.2-18L38.2-18Q38.2-16.85 38-16L38-16Q38.2-15.2 38.2-14L38.2-14Q38.2-12.85 38-12L38-12Q38.2-11.2 38.2-10L38.2-10Q38.2-8.85 38-8L38-8Q38.2-7.2 38.2-6L38.2-6Q38.2-4.85 38-4L38-4Q38.2-3.2 38.2-2L38.2-2Q38.2-0.85 38 0L38 0 34 0Q33.8-0.85 33.8-2L33.8-2Q33.8-3.2 34-4L34-4Q33.8-4.85 33.8-6L33.8-6Q33.8-7.2 34-8L34-8Q33.8-8.85 33.8-10L33.8-10Q33.8-11.2 34-12L34-12Q33.8-12.85 33.8-14L33.8-14Q33.8-15.2 34-16L34-16Q33.8-16.85 33.8-18L33.8-18Q33.8-19.2 34-20L34-20 32.5-20Q32.7-19.2 32.7-18L32.7-18Q32.7-16.85 32.5-16L32.5-16Q32.7-15.2 32.7-14L32.7-14Q32.7-12.85 32.5-12L32.5-12 31.5-12Q31.7-11.2 31.7-10L31.7-10Q31.7-8.85 31.5-8L31.5-8Q31.7-7.2 31.7-6L31.7-6Q31.7-4.85 31.5-4L31.5-4 28.5-4Q28.3-4.85 28.3-6L28.3-6Q28.3-7.2 28.5-8L28.5-8Q28.3-8.85 28.3-10L28.3-10Q28.3-11.2 28.5-12L28.5-12 27.5-12Q27.3-12.85 27.3-14L27.3-14Q27.3-15.2 27.5-16L27.5-16Q27.3-16.85 27.3-18L27.3-18Q27.3-19.2 27.5-20L27.5-20 26-20Q26.2-19.2 26.2-18L26.2-18Q26.2-16.85 26-16L26-16Q26.2-15.2 26.2-14L26.2-14Q26.2-12.85 26-12L26-12Q26.2-11.2 26.2-10L26.2-10Q26.2-8.85 26-8L26-8Q26.2-7.2 26.2-6L26.2-6Q26.2-4.85 26-4L26-4Q26.2-3.2 26.2-2L26.2-2Q26.2-0.85 26 0L26 0 22 0Q21.8-0.85 21.8-2L21.8-2Q21.8-3.2 22-4L22-4Q21.8-4.85 21.8-6L21.8-6Q21.8-7.2 22-8L22-8Q21.8-8.85 21.8-10L21.8-10Q21.8-11.2 22-12L22-12Q21.8-12.85 21.8-14L21.8-14Q21.8-15.2 22-16L22-16Q21.8-16.85 21.8-18L21.8-18Q21.8-19.2 22-20L22-20Q21.8-20.85 21.8-22L21.8-22Q21.8-23.2 22-24L22-24Q21.8-24.85 21.8-26L21.8-26Q21.8-27.2 22-28L22-28 27-28Q27.2-27.2 27.2-26L27.2-26Q27.2-24.85 27-24L27-24 28.5-24Q28.7-23.2 28.7-22L28.7-22Q28.7-20.85 28.5-20L28.5-20 29.25-20Q29.45-19.2 29.45-18L29.45-18Q29.45-16.85 29.25-16L29.25-16 30.75-16Q30.55-16.85 30.55-18L30.55-18Q30.55-19.2 30.75-20L30.75-20 31.5-20Q31.3-20.85 31.3-22L31.3-22Q31.3-23.2 31.5-24L31.5-24 33-24Q32.8-24.85 32.8-26L32.8-26Q32.8-27.2 33-28L33-28 38-28Q38.2-27.2 38.2-26L38.2-26Q38.2-24.85 38-24L38-24ZM52-4L55-4Q55.2-3.2 55.2-2L55.2-2Q55.2-0.85 55 0L55 0 45 0Q44.8-0.85 44.8-2L44.8-2Q44.8-3.2 45-4L45-4 48-4Q47.8-4.85 47.8-6L47.8-6Q47.8-7.2 48-8L48-8Q47.8-8.85 47.8-10L47.8-10Q47.8-11.2 48-12L48-12Q47.8-12.85 47.8-14L47.8-14Q47.8-15.2 48-16L48-16Q47.8-16.85 47.8-18L47.8-18Q47.8-19.2 48-20L48-20Q47.8-20.85 47.8-22L47.8-22Q47.8-23.2 48-24L48-24 45-24Q44.8-24.85 44.8-26L44.8-26Q44.8-27.2 45-28L45-28 55-28Q55.2-27.2 55.2-26L55.2-26Q55.2-24.85 55-24L55-24 52-24Q52.2-23.2 52.2-22L52.2-22Q52.2-20.85 52-20L52-20Q52.2-19.2 52.2-18L52.2-18Q52.2-16.85 52-16L52-16Q52.2-15.2 52.2-14L52.2-14Q52.2-12.85 52-12L52-12Q52.2-11.2 52.2-10L52.2-10Q52.2-8.85 52-8L52-8Q52.2-7.2 52.2-6L52.2-6Q52.2-4.85 52-4L52-4ZM77.99-24Q78.19-23.2 78.19-22L78.19-22Q78.19-20.85 77.99-20L77.99-20Q78.19-19.2 78.19-18L78.19-18Q78.19-16.85 77.99-16L77.99-16Q78.19-15.2 78.19-14L78.19-14Q78.19-12.85 77.99-12L77.99-12Q78.19-11.2 78.19-10L78.19-10Q78.19-8.85 77.99-8L77.99-8Q78.19-7.2 78.19-6L78.19-6Q78.19-4.85 77.99-4L77.99-4Q78.19-3.2 78.19-2L78.19-2Q78.19-0.85 77.99 0L77.99 0 73.99 0Q73.79-0.85 73.79-2L73.79-2Q73.79-3.2 73.99-4L73.99-4 71.49-4Q71.29-4.85 71.29-6L71.29-6Q71.29-7.2 71.49-8L71.49-8 69.99-8Q69.79-8.85 69.79-10L69.79-10Q69.79-11.2 69.99-12L69.99-12 67.99-12Q67.79-12.85 67.79-14L67.79-14Q67.79-15.2 67.99-16L67.99-16 65.99-16Q66.19-15.2 66.19-14L66.19-14Q66.19-12.85 65.99-12L65.99-12Q66.19-11.2 66.19-10L66.19-10Q66.19-8.85 65.99-8L65.99-8Q66.19-7.2 66.19-6L66.19-6Q66.19-4.85 65.99-4L65.99-4Q66.19-3.2 66.19-2L66.19-2Q66.19-0.85 65.99 0L65.99 0 61.99 0Q61.79-0.85 61.79-2L61.79-2Q61.79-3.2 61.99-4L61.99-4Q61.79-4.85 61.79-6L61.79-6Q61.79-7.2 61.99-8L61.99-8Q61.79-8.85 61.79-10L61.79-10Q61.79-11.2 61.99-12L61.99-12Q61.79-12.85 61.79-14L61.79-14Q61.79-15.2 61.99-16L61.99-16Q61.79-16.85 61.79-18L61.79-18Q61.79-19.2 61.99-20L61.99-20Q61.79-20.85 61.79-22L61.79-22Q61.79-23.2 61.99-24L61.99-24Q61.79-24.85 61.79-26L61.79-26Q61.79-27.2 61.99-28L61.99-28 66.99-28Q67.19-27.2 67.19-26L67.19-26Q67.19-24.85 66.99-24L66.99-24 68.49-24Q68.69-23.2 68.69-22L68.69-22Q68.69-20.85 68.49-20L68.49-20 69.99-20Q70.19-19.2 70.19-18L70.19-18Q70.19-16.85 69.99-16L69.99-16 71.99-16Q72.19-15.2 72.19-14L72.19-14Q72.19-12.85 71.99-12L71.99-12 73.99-12Q73.79-12.85 73.79-14L73.79-14Q73.79-15.2 73.99-16L73.99-16Q73.79-16.85 73.79-18L73.79-18Q73.79-19.2 73.99-20L73.99-20Q73.79-20.85 73.79-22L73.79-22Q73.79-23.2 73.99-24L73.99-24Q73.79-24.85 73.79-26L73.79-26Q73.79-27.2 73.99-28L73.99-28 77.99-28Q78.19-27.2 78.19-26L78.19-26Q78.19-24.85 77.99-24L77.99-24ZM97.99-16Q98.19-15.2 98.19-14L98.19-14Q98.19-12.85 97.99-12L97.99-12Q98.19-11.2 98.19-10L98.19-10Q98.19-8.85 97.99-8L97.99-8Q98.19-7.2 98.19-6L98.19-6Q98.19-4.85 97.99-4L97.99-4 95.99-4Q96.19-3.2 96.19-2L96.19-2Q96.19-0.85 95.99 0L95.99 0 85.99 0Q85.79-0.85 85.79-2L85.79-2Q85.79-3.2 85.99-4L85.99-4 83.99-4Q83.79-4.85 83.79-6L83.79-6Q83.79-7.2 83.99-8L83.99-8 81.99-8Q81.79-8.85 81.79-10L81.79-10Q81.79-11.2 81.99-12L81.99-12Q81.79-12.85 81.79-14L81.79-14Q81.79-15.2 81.99-16L81.99-16Q81.79-16.85 81.79-18L81.79-18Q81.79-19.2 81.99-20L81.99-20 83.99-20Q83.79-20.85 83.79-22L83.79-22Q83.79-23.2 83.99-24L83.99-24 85.99-24Q85.79-24.85 85.79-26L85.79-26Q85.79-27.2 85.99-28L85.99-28 95.99-28Q96.19-27.2 96.19-26L96.19-26Q96.19-24.85 95.99-24L95.99-24 97.99-24Q98.19-23.2 98.19-22L98.19-22Q98.19-20.85 97.99-20L97.99-20 93.99-20Q93.79-20.85 93.79-22L93.79-22Q93.79-23.2 93.99-24L93.99-24 87.99-24Q88.19-23.2 88.19-22L88.19-22Q88.19-20.85 87.99-20L87.99-20 85.99-20Q86.19-19.2 86.19-18L86.19-18Q86.19-16.85 85.99-16L85.99-16Q86.19-15.2 86.19-14L86.19-14Q86.19-12.85 85.99-12L85.99-12Q86.19-11.2 86.19-10L86.19-10Q86.19-8.85 85.99-8L85.99-8 87.99-8Q88.19-7.2 88.19-6L88.19-6Q88.19-4.85 87.99-4L87.99-4 93.99-4Q93.79-4.85 93.79-6L93.79-6Q93.79-7.2 93.99-8L93.99-8Q93.79-8.85 93.79-10L93.79-10Q93.79-11.2 93.99-12L93.99-12 90.99-12Q90.79-12.85 90.79-14L90.79-14Q90.79-15.2 90.99-16L90.99-16 97.99-16ZM117.99-12Q118.19-11.2 118.19-10L118.19-10Q118.19-8.85 117.99-8L117.99-8Q118.19-7.2 118.19-6L118.19-6Q118.19-4.85 117.99-4L117.99-4 115.99-4Q116.19-3.2 116.19-2L116.19-2Q116.19-0.85 115.99 0L115.99 0 103.99 0Q103.79-0.85 103.79-2L103.79-2Q103.79-3.2 103.99-4L103.99-4 101.99-4Q101.79-4.85 101.79-6L101.79-6Q101.79-7.2 101.99-8L101.99-8 105.99-8Q106.19-7.2 106.19-6L106.19-6Q106.19-4.85 105.99-4L105.99-4 113.99-4Q113.79-4.85 113.79-6L113.79-6Q113.79-7.2 113.99-8L113.99-8Q113.79-8.85 113.79-10L113.79-10Q113.79-11.2 113.99-12L113.99-12 103.99-12Q103.79-12.85 103.79-14L103.79-14Q103.79-15.2 103.99-16L103.99-16 101.99-16Q101.79-16.85 101.79-18L101.79-18Q101.79-19.2 101.99-20L101.99-20Q101.79-20.85 101.79-22L101.79-22Q101.79-23.2 101.99-24L101.99-24 103.99-24Q103.79-24.85 103.79-26L103.79-26Q103.79-27.2 103.99-28L103.99-28 115.99-28Q116.19-27.2 116.19-26L116.19-26Q116.19-24.85 115.99-24L115.99-24 117.99-24Q118.19-23.2 118.19-22L118.19-22Q118.19-20.85 117.99-20L117.99-20 113.99-20Q113.79-20.85 113.79-22L113.79-22Q113.79-23.2 113.99-24L113.99-24 105.99-24Q106.19-23.2 106.19-22L106.19-22Q106.19-20.85 105.99-20L105.99-20Q106.19-19.2 106.19-18L106.19-18Q106.19-16.85 105.99-16L105.99-16 115.99-16Q116.19-15.2 116.19-14L116.19-14Q116.19-12.85 115.99-12L115.99-12 117.99-12ZM137.99-16Q138.19-15.2 138.19-14L138.19-14Q138.19-12.85 137.99-12L137.99-12Q138.19-11.2 138.19-10L138.19-10Q138.19-8.85 137.99-8L137.99-8 136.49-8Q136.69-7.2 136.69-6L136.69-6Q136.69-4.85 136.49-4L136.49-4 133.99-4Q134.19-3.2 134.19-2L134.19-2Q134.19-0.85 133.99 0L133.99 0 125.99 0Q125.79-0.85 125.79-2L125.79-2Q125.79-3.2 125.99-4L125.99-4 123.49-4Q123.29-4.85 123.29-6L123.29-6Q123.29-7.2 123.49-8L123.49-8 121.99-8Q121.79-8.85 121.79-10L121.79-10Q121.79-11.2 121.99-12L121.99-12Q121.79-12.85 121.79-14L121.79-14Q121.79-15.2 121.99-16L121.99-16Q121.79-16.85 121.79-18L121.79-18Q121.79-19.2 121.99-20L121.99-20 123.49-20Q123.29-20.85 123.29-22L123.29-22Q123.29-23.2 123.49-24L123.49-24 125.99-24Q125.79-24.85 125.79-26L125.79-26Q125.79-27.2 125.99-28L125.99-28 133.99-28Q134.19-27.2 134.19-26L134.19-26Q134.19-24.85 133.99-24L133.99-24 136.49-24Q136.69-23.2 136.69-22L136.69-22Q136.69-20.85 136.49-20L136.49-20 137.99-20Q138.19-19.2 138.19-18L138.19-18Q138.19-16.85 137.99-16L137.99-16ZM133.99-8Q133.79-8.85 133.79-10L133.79-10Q133.79-11.2 133.99-12L133.99-12Q133.79-12.85 133.79-14L133.79-14Q133.79-15.2 133.99-16L133.99-16Q133.79-16.85 133.79-18L133.79-18Q133.79-19.2 133.99-20L133.99-20 132.49-20Q132.29-20.85 132.29-22L132.29-22Q132.29-23.2 132.49-24L132.49-24 127.49-24Q127.69-23.2 127.69-22L127.69-22Q127.69-20.85 127.49-20L127.49-20 125.99-20Q126.19-19.2 126.19-18L126.19-18Q126.19-16.85 125.99-16L125.99-16Q126.19-15.2 126.19-14L126.19-14Q126.19-12.85 125.99-12L125.99-12Q126.19-11.2 126.19-10L126.19-10Q126.19-8.85 125.99-8L125.99-8 127.49-8Q127.69-7.2 127.69-6L127.69-6Q127.69-4.85 127.49-4L127.49-4 132.49-4Q132.29-4.85 132.29-6L132.29-6Q132.29-7.2 132.49-8L132.49-8 133.99-8ZM157.98-24Q158.18-23.2 158.18-22L158.18-22Q158.18-20.85 157.98-20L157.98-20Q158.18-19.2 158.18-18L158.18-18Q158.18-16.85 157.98-16L157.98-16Q158.18-15.2 158.18-14L158.18-14Q158.18-12.85 157.98-12L157.98-12Q158.18-11.2 158.18-10L158.18-10Q158.18-8.85 157.98-8L157.98-8Q158.18-7.2 158.18-6L158.18-6Q158.18-4.85 157.98-4L157.98-4Q158.18-3.2 158.18-2L158.18-2Q158.18-0.85 157.98 0L157.98 0 153.98 0Q153.78-0.85 153.78-2L153.78-2Q153.78-3.2 153.98-4L153.98-4 151.48-4Q151.28-4.85 151.28-6L151.28-6Q151.28-7.2 151.48-8L151.48-8 149.98-8Q149.78-8.85 149.78-10L149.78-10Q149.78-11.2 149.98-12L149.98-12 147.98-12Q147.78-12.85 147.78-14L147.78-14Q147.78-15.2 147.98-16L147.98-16 145.98-16Q146.18-15.2 146.18-14L146.18-14Q146.18-12.85 145.98-12L145.98-12Q146.18-11.2 146.18-10L146.18-10Q146.18-8.85 145.98-8L145.98-8Q146.18-7.2 146.18-6L146.18-6Q146.18-4.85 145.98-4L145.98-4Q146.18-3.2 146.18-2L146.18-2Q146.18-0.85 145.98 0L145.98 0 141.98 0Q141.78-0.85 141.78-2L141.78-2Q141.78-3.2 141.98-4L141.98-4Q141.78-4.85 141.78-6L141.78-6Q141.78-7.2 141.98-8L141.98-8Q141.78-8.85 141.78-10L141.78-10Q141.78-11.2 141.98-12L141.98-12Q141.78-12.85 141.78-14L141.78-14Q141.78-15.2 141.98-16L141.98-16Q141.78-16.85 141.78-18L141.78-18Q141.78-19.2 141.98-20L141.98-20Q141.78-20.85 141.78-22L141.78-22Q141.78-23.2 141.98-24L141.98-24Q141.78-24.85 141.78-26L141.78-26Q141.78-27.2 141.98-28L141.98-28 146.98-28Q147.18-27.2 147.18-26L147.18-26Q147.18-24.85 146.98-24L146.98-24 148.48-24Q148.68-23.2 148.68-22L148.68-22Q148.68-20.85 148.48-20L148.48-20 149.98-20Q150.18-19.2 150.18-18L150.18-18Q150.18-16.85 149.98-16L149.98-16 151.98-16Q152.18-15.2 152.18-14L152.18-14Q152.18-12.85 151.98-12L151.98-12 153.98-12Q153.78-12.85 153.78-14L153.78-14Q153.78-15.2 153.98-16L153.98-16Q153.78-16.85 153.78-18L153.78-18Q153.78-19.2 153.98-20L153.98-20Q153.78-20.85 153.78-22L153.78-22Q153.78-23.2 153.98-24L153.98-24Q153.78-24.85 153.78-26L153.78-26Q153.78-27.2 153.98-28L153.98-28 157.98-28Q158.18-27.2 158.18-26L158.18-26Q158.18-24.85 157.98-24L157.98-24ZM177.98-16Q178.18-15.2 178.18-14L178.18-14Q178.18-12.85 177.98-12L177.98-12Q178.18-11.2 178.18-10L178.18-10Q178.18-8.85 177.98-8L177.98-8Q178.18-7.2 178.18-6L178.18-6Q178.18-4.85 177.98-4L177.98-4 175.98-4Q176.18-3.2 176.18-2L176.18-2Q176.18-0.85 175.98 0L175.98 0 165.98 0Q165.78-0.85 165.78-2L165.78-2Q165.78-3.2 165.98-4L165.98-4 163.98-4Q163.78-4.85 163.78-6L163.78-6Q163.78-7.2 163.98-8L163.98-8 161.98-8Q161.78-8.85 161.78-10L161.78-10Q161.78-11.2 161.98-12L161.98-12Q161.78-12.85 161.78-14L161.78-14Q161.78-15.2 161.98-16L161.98-16Q161.78-16.85 161.78-18L161.78-18Q161.78-19.2 161.98-20L161.98-20 163.98-20Q163.78-20.85 163.78-22L163.78-22Q163.78-23.2 163.98-24L163.98-24 165.98-24Q165.78-24.85 165.78-26L165.78-26Q165.78-27.2 165.98-28L165.98-28 175.98-28Q176.18-27.2 176.18-26L176.18-26Q176.18-24.85 175.98-24L175.98-24 177.98-24Q178.18-23.2 178.18-22L178.18-22Q178.18-20.85 177.98-20L177.98-20 173.98-20Q173.78-20.85 173.78-22L173.78-22Q173.78-23.2 173.98-24L173.98-24 167.98-24Q168.18-23.2 168.18-22L168.18-22Q168.18-20.85 167.98-20L167.98-20 165.98-20Q166.18-19.2 166.18-18L166.18-18Q166.18-16.85 165.98-16L165.98-16Q166.18-15.2 166.18-14L166.18-14Q166.18-12.85 165.98-12L165.98-12Q166.18-11.2 166.18-10L166.18-10Q166.18-8.85 165.98-8L165.98-8 167.98-8Q168.18-7.2 168.18-6L168.18-6Q168.18-4.85 167.98-4L167.98-4 173.98-4Q173.78-4.85 173.78-6L173.78-6Q173.78-7.2 173.98-8L173.98-8Q173.78-8.85 173.78-10L173.78-10Q173.78-11.2 173.98-12L173.98-12 170.98-12Q170.78-12.85 170.78-14L170.78-14Q170.78-15.2 170.98-16L170.98-16 177.98-16ZM192.68-6Q192.68-4.85 192.48-4L192.48-4Q192.68-3.2 192.68-2L192.68-2Q192.68-0.85 192.48 0L192.48 0 187.48 0Q187.28-0.85 187.28-2L187.28-2Q187.28-3.2 187.48-4L187.48-4Q187.28-4.85 187.28-6L187.28-6Q187.28-7.2 187.48-8L187.48-8 192.48-8Q192.68-7.2 192.68-6L192.68-6ZM217.98-16Q218.18-15.2 218.18-14L218.18-14Q218.18-12.85 217.98-12L217.98-12Q218.18-11.2 218.18-10L218.18-10Q218.18-8.85 217.98-8L217.98-8 215.98-8Q216.18-7.2 216.18-6L216.18-6Q216.18-4.85 215.98-4L215.98-4 213.98-4Q214.18-3.2 214.18-2L214.18-2Q214.18-0.85 213.98 0L213.98 0 201.98 0Q201.78-0.85 201.78-2L201.78-2Q201.78-3.2 201.98-4L201.98-4Q201.78-4.85 201.78-6L201.78-6Q201.78-7.2 201.98-8L201.98-8Q201.78-8.85 201.78-10L201.78-10Q201.78-11.2 201.98-12L201.98-12Q201.78-12.85 201.78-14L201.78-14Q201.78-15.2 201.98-16L201.98-16Q201.78-16.85 201.78-18L201.78-18Q201.78-19.2 201.98-20L201.98-20Q201.78-20.85 201.78-22L201.78-22Q201.78-23.2 201.98-24L201.98-24Q201.78-24.85 201.78-26L201.78-26Q201.78-27.2 201.98-28L201.98-28 213.98-28Q214.18-27.2 214.18-26L214.18-26Q214.18-24.85 213.98-24L213.98-24 215.98-24Q216.18-23.2 216.18-22L216.18-22Q216.18-20.85 215.98-20L215.98-20 217.98-20Q218.18-19.2 218.18-18L218.18-18Q218.18-16.85 217.98-16L217.98-16ZM213.98-8Q213.78-8.85 213.78-10L213.78-10Q213.78-11.2 213.98-12L213.98-12Q213.78-12.85 213.78-14L213.78-14Q213.78-15.2 213.98-16L213.98-16Q213.78-16.85 213.78-18L213.78-18Q213.78-19.2 213.98-20L213.98-20 211.98-20Q211.78-20.85 211.78-22L211.78-22Q211.78-23.2 211.98-24L211.98-24 205.98-24Q206.18-23.2 206.18-22L206.18-22Q206.18-20.85 205.98-20L205.98-20Q206.18-19.2 206.18-18L206.18-18Q206.18-16.85 205.98-16L205.98-16Q206.18-15.2 206.18-14L206.18-14Q206.18-12.85 205.98-12L205.98-12Q206.18-11.2 206.18-10L206.18-10Q206.18-8.85 205.98-8L205.98-8Q206.18-7.2 206.18-6L206.18-6Q206.18-4.85 205.98-4L205.98-4 211.98-4Q211.78-4.85 211.78-6L211.78-6Q211.78-7.2 211.98-8L211.98-8 213.98-8ZM235.97-12L227.97-12Q228.17-11.2 228.17-10L228.17-10Q228.17-8.85 227.97-8L227.97-8Q228.17-7.2 228.17-6L228.17-6Q228.17-4.85 227.97-4L227.97-4 235.97-4Q236.17-3.2 236.17-2L236.17-2Q236.17-0.85 235.97 0L235.97 0 223.97 0Q223.77-0.85 223.77-2L223.77-2Q223.77-3.2 223.97-4L223.97-4Q223.77-4.85 223.77-6L223.77-6Q223.77-7.2 223.97-8L223.97-8Q223.77-8.85 223.77-10L223.77-10Q223.77-11.2 223.97-12L223.97-12Q223.77-12.85 223.77-14L223.77-14Q223.77-15.2 223.97-16L223.97-16Q223.77-16.85 223.77-18L223.77-18Q223.77-19.2 223.97-20L223.97-20Q223.77-20.85 223.77-22L223.77-22Q223.77-23.2 223.97-24L223.97-24Q223.77-24.85 223.77-26L223.77-26Q223.77-27.2 223.97-28L223.97-28 235.97-28Q236.17-27.2 236.17-26L236.17-26Q236.17-24.85 235.97-24L235.97-24 227.97-24Q228.17-23.2 228.17-22L228.17-22Q228.17-20.85 227.97-20L227.97-20Q228.17-19.2 228.17-18L228.17-18Q228.17-16.85 227.97-16L227.97-16 235.97-16Q236.17-15.2 236.17-14L236.17-14Q236.17-12.85 235.97-12L235.97-12ZM257.97-24Q258.17-23.2 258.17-22L258.17-22Q258.17-20.85 257.97-20L257.97-20Q258.17-19.2 258.17-18L258.17-18Q258.17-16.85 257.97-16L257.97-16 256.47-16Q256.67-15.2 256.67-14L256.67-14Q256.67-12.85 256.47-12L256.47-12 254.97-12Q255.17-11.2 255.17-10L255.17-10Q255.17-8.85 254.97-8L254.97-8 253.97-8Q254.17-7.2 254.17-6L254.17-6Q254.17-4.85 253.97-4L253.97-4 251.97-4Q252.17-3.2 252.17-2L252.17-2Q252.17-0.85 251.97 0L251.97 0 247.97 0Q247.77-0.85 247.77-2L247.77-2Q247.77-3.2 247.97-4L247.97-4 245.97-4Q245.77-4.85 245.77-6L245.77-6Q245.77-7.2 245.97-8L245.97-8 244.97-8Q244.77-8.85 244.77-10L244.77-10Q244.77-11.2 244.97-12L244.97-12 243.47-12Q243.27-12.85 243.27-14L243.27-14Q243.27-15.2 243.47-16L243.47-16 241.97-16Q241.77-16.85 241.77-18L241.77-18Q241.77-19.2 241.97-20L241.97-20Q241.77-20.85 241.77-22L241.77-22Q241.77-23.2 241.97-24L241.97-24Q241.77-24.85 241.77-26L241.77-26Q241.77-27.2 241.97-28L241.97-28 245.97-28Q246.17-27.2 246.17-26L246.17-26Q246.17-24.85 245.97-24L245.97-24Q246.17-23.2 246.17-22L246.17-22Q246.17-20.85 245.97-20L245.97-20Q246.17-19.2 246.17-18L246.17-18Q246.17-16.85 245.97-16L245.97-16 247.47-16Q247.67-15.2 247.67-14L247.67-14Q247.67-12.85 247.47-12L247.47-12 248.97-12Q249.17-11.2 249.17-10L249.17-10Q249.17-8.85 248.97-8L248.97-8 250.97-8Q250.77-8.85 250.77-10L250.77-10Q250.77-11.2 250.97-12L250.97-12 252.47-12Q252.27-12.85 252.27-14L252.27-14Q252.27-15.2 252.47-16L252.47-16 253.97-16Q253.77-16.85 253.77-18L253.77-18Q253.77-19.2 253.97-20L253.97-20Q253.77-20.85 253.77-22L253.77-22Q253.77-23.2 253.97-24L253.97-24Q253.77-24.85 253.77-26L253.77-26Q253.77-27.2 253.97-28L253.97-28 257.97-28Q258.17-27.2 258.17-26L258.17-26Q258.17-24.85 257.97-24L257.97-24Z" opacity="1" transform="matrix(1,0,0,1,0,0)" fill="#152232" class="wordmark-text-0" data-fill-palette-color="primary" id="text-0"></path></svg></g></svg></g></svg></g></svg></g><g transform="matrix(1,0,0,1,97.87554639605759,0)"><svg viewBox="0 0 48.68026720788482 41.316450137859604" height="41.316450137859604" width="48.68026720788482"><g><svg xmlns="http://www.w3.org/2000/svg" xmlns:xlink="http://www.w3.org/1999/xlink" version="1.1" x="0" y="0" viewBox="0.1646825396825397 4 49.83630952380953 42.29761904761906" enable-background="new 0 0 50.4 50.4" xml:space="preserve" id="icon-0" width="48.68026720788482" height="41.316450137859604" class="icon-icon-0" data-fill-palette-color="accent"><g fill="#5ebc67" data-fill-palette-color="accent"><rect x="0.166" y="31.438" width="3.515" height="3.518" fill="#5ebc67" data-fill-palette-color="accent"></rect><rect x="5.93" y="31.438" width="3.515" height="3.518" fill="#5ebc67" data-fill-palette-color="accent"></rect><rect x="11.834" y="31.438" width="3.516" height="3.518" fill="#5ebc67" data-fill-palette-color="accent"></rect><rect x="17.599" y="31.438" width="3.514" height="3.518" fill="#5ebc67" data-fill-palette-color="accent"></rect><rect x="23.502" y="31.438" width="3.515" height="3.518" fill="#5ebc67" data-fill-palette-color="accent"></rect><rect x="29.267" y="31.438" width="3.515" height="3.518" fill="#5ebc67" data-fill-palette-color="accent"></rect><rect x="35.17" y="31.438" width="3.517" height="3.518" fill="#5ebc67" data-fill-palette-color="accent"></rect><rect x="40.937" y="31.438" width="3.515" height="3.518" fill="#5ebc67" data-fill-palette-color="accent"></rect><rect x="0.166" y="37.269" width="3.515" height="3.514" fill="#5ebc67" data-fill-palette-color="accent"></rect><rect x="5.93" y="37.269" width="3.515" height="3.514" fill="#5ebc67" data-fill-palette-color="accent"></rect><rect x="11.834" y="37.269" width="3.516" height="3.514" fill="#5ebc67" data-fill-palette-color="accent"></rect><rect x="17.599" y="37.269" width="3.514" height="3.514" fill="#5ebc67" data-fill-palette-color="accent"></rect><rect x="23.502" y="37.269" width="3.515" height="3.514" fill="#5ebc67" data-fill-palette-color="accent"></rect><rect x="29.267" y="37.269" width="3.515" height="3.514" fill="#5ebc67" data-fill-palette-color="accent"></rect><rect x="35.17" y="37.269" width="3.517" height="3.514" fill="#5ebc67" data-fill-palette-color="accent"></rect><rect x="40.937" y="37.269" width="3.515" height="3.514" fill="#5ebc67" data-fill-palette-color="accent"></rect><rect x="0.166" y="43.154" width="3.515" height="3.514" fill="#5ebc67" data-fill-palette-color="accent"></rect><rect x="5.93" y="43.154" width="3.515" height="3.514" fill="#5ebc67" data-fill-palette-color="accent"></rect><rect x="11.834" y="43.154" width="26.853" height="3.514" fill="#5ebc67" data-fill-palette-color="accent"></rect><rect x="40.937" y="43.154" width="3.515" height="3.514" fill="#5ebc67" data-fill-palette-color="accent"></rect><rect x="46.887" y="31.438" width="3.514" height="3.518" fill="#5ebc67" data-fill-palette-color="accent"></rect><rect x="46.887" y="37.269" width="3.514" height="3.514" fill="#5ebc67" data-fill-palette-color="accent"></rect><rect x="46.887" y="43.154" width="3.514" height="3.514" fill="#5ebc67" data-fill-palette-color="accent"></rect><rect x="6" y="4.032" width="38.521" height="24.06" fill="#5ebc67" data-fill-palette-color="accent"></rect></g></svg></g></svg></g><g></g></svg></g></svg></g><g><path d="M83.531 80.143A122.216 122.216 0 0 1 311.989 80.143L309.581 80.143A119.808 119.808 0 0 0 85.939 80.143L83.531 80.143M83.531 167.057A122.216 122.216 0 0 0 311.989 167.057L309.581 167.057A119.808 119.808 0 0 1 85.939 167.057L83.531 167.057" fill="#5ebc67" stroke="transparent" data-fill-palette-color="tertiary"></path></g></svg></g><defs></defs></svg><rect width="395.52" height="247.2" fill="none" stroke="none" visibility="hidden"></rect></g></svg></g></svg>